<?xml version="1.0" encoding="UTF-8"?>
<svg xmlns="http://www.w3.org/2000/svg" xmlns:xlink="http://www.w3.org/1999/xlink" width="360px" height="200px" viewBox="0 0 360 200" version="1.1">
<g id="surface1">
<path style=" stroke:none;fill-rule:nonzero;fill:rgb(91.764706%,42.352941%,21.176471%);fill-opacity:1;" d="M 100 0 L 260 0 C 315.226562 0 360 44.773438 360 100 C 360 155.226562 315.226562 200 260 200 L 100 200 C 44.773438 200 0 155.226562 0 100 C 0 44.773438 44.773438 0 100 0 Z M 100 0 "/>
<path style=" stroke:none;fill-rule:nonzero;fill:rgb(100%,100%,100%);fill-opacity:1;" d="M 260 30 C 298.660156 30 330 61.339844 330 100 C 330 138.660156 298.660156 170 260 170 C 221.339844 170 190 138.660156 190 100 C 190 61.339844 221.339844 30 260 30 Z M 260 30 "/>
</g>
</svg>
