<?xml version="1.0" encoding="UTF-8"?>
<svg xmlns="http://www.w3.org/2000/svg" xmlns:xlink="http://www.w3.org/1999/xlink" width="210px" height="210px" viewBox="0 0 210 210" version="1.1">
<defs>
<filter id="alpha" filterUnits="objectBoundingBox" x="0%" y="0%" width="100%" height="100%">
  <feColorMatrix type="matrix" in="SourceGraphic" values="0 0 0 0 1 0 0 0 0 1 0 0 0 0 1 0 0 0 1 0"/>
</filter>
<mask id="mask0">
  <g filter="url(#alpha)">
<rect x="0" y="0" width="210" height="210" style="fill:rgb(0%,0%,0%);fill-opacity:0.937255;stroke:none;"/>
  </g>
</mask>
<clipPath id="clip1">
  <rect x="0" y="0" width="210" height="210"/>
</clipPath>
<g id="surface5" clip-path="url(#clip1)">
<path style=" stroke:none;fill-rule:evenodd;fill:rgb(100%,100%,100%);fill-opacity:1;" d="M 23.585938 -0.203125 C 26.726562 -0.203125 29.871094 -0.203125 33.019531 -0.203125 C 34.609375 0.261719 36.25 0.742188 37.941406 1.230469 C 52.574219 2.972656 67.203125 4.75 81.828125 6.5625 C 83.808594 7.984375 84.148438 9.695312 82.851562 11.691406 C 82.089844 12.546875 81.132812 12.957031 79.980469 12.917969 C 70.042969 11.695312 60.128906 10.53125 50.242188 9.433594 C 57.679688 21.363281 64.859375 33.464844 71.777344 45.730469 C 90.125 43.089844 108.515625 40.628906 126.941406 38.347656 C 127.078125 31.6875 126.941406 25.054688 126.53125 18.457031 C 115.179688 17.125 103.835938 15.757812 92.488281 14.355469 C 90.128906 12.757812 89.855469 10.84375 91.667969 8.613281 C 92.503906 8.199219 93.394531 7.996094 94.335938 8 C 105.886719 9.484375 117.4375 10.785156 128.992188 11.894531 C 133.304688 8.0625 137.402344 4.03125 141.300781 -0.203125 C 149.363281 -0.203125 157.433594 -0.203125 165.496094 -0.203125 C 170.585938 2.449219 172.773438 6.6875 172.0625 12.511719 C 173.570312 12.441406 175.074219 12.511719 176.570312 12.714844 C 178.484375 14.628906 180.398438 16.542969 182.3125 18.457031 C 188.738281 18.59375 195.164062 18.730469 201.59375 18.867188 C 204.542969 21.339844 207.277344 24.007812 209.796875 26.863281 C 209.796875 27.960938 209.796875 29.050781 209.796875 30.148438 C 207.132812 32.742188 204.394531 35.273438 201.59375 37.734375 C 195.304688 37.871094 189.015625 38.007812 182.726562 38.144531 C 180.644531 40.5 178.320312 42.550781 175.753906 44.296875 C 174.527344 44.5 173.296875 44.570312 172.0625 44.503906 C 172.746094 51.007812 170.011719 55.179688 163.855469 57.011719 C 156.609375 57.285156 149.363281 57.285156 142.117188 57.011719 C 137.421875 53.066406 132.910156 48.898438 128.585938 44.503906 C 110.761719 46.898438 92.988281 49.429688 75.265625 52.089844 C 82.1875 63.679688 88.953125 75.367188 95.566406 87.15625 C 115.210938 93.414062 125.671875 106.878906 126.941406 127.558594 C 126.640625 142.527344 120.351562 154.148438 108.074219 162.421875 C 115.734375 162.558594 123.390625 162.695312 131.046875 162.832031 C 131.632812 163.023438 132.109375 163.363281 132.480469 163.855469 C 132.945312 167.03125 133.152344 170.242188 133.097656 173.496094 C 133.152344 176.75 132.945312 179.964844 132.480469 183.136719 C 132.140625 183.476562 131.796875 183.816406 131.453125 184.160156 C 127.902344 184.363281 124.347656 184.433594 120.789062 184.363281 C 120.859375 192.160156 120.789062 199.953125 120.585938 207.742188 C 120.175781 208.492188 119.699219 209.175781 119.148438 209.796875 C 83.878906 209.796875 48.601562 209.796875 13.332031 209.796875 C 12.605469 209.132812 12.125 208.3125 11.894531 207.335938 C 11.691406 199.679688 11.621094 192.023438 11.691406 184.363281 C 8.269531 184.433594 4.851562 184.363281 1.4375 184.160156 C 0.675781 183.878906 0.128906 183.398438 -0.203125 182.726562 C -0.203125 176.570312 -0.203125 170.421875 -0.203125 164.269531 C 0.261719 163.734375 0.808594 163.253906 1.4375 162.832031 C 6.082031 162.695312 10.730469 162.558594 15.382812 162.421875 C 7.363281 155.046875 4.421875 145.953125 6.5625 135.144531 C 8.011719 129.035156 11.085938 123.910156 15.789062 119.765625 C 23.613281 114.816406 31.542969 110.03125 39.582031 105.410156 C 37.136719 101.273438 34.742188 97.105469 32.402344 92.902344 C 31.632812 89.570312 32.933594 88 36.296875 88.183594 C 37.03125 88.503906 37.648438 88.984375 38.144531 89.617188 C 44.417969 100.609375 50.777344 111.546875 57.21875 122.433594 C 60.585938 109.5625 68.789062 101.835938 81.828125 99.257812 C 84.5625 98.984375 87.292969 98.984375 90.03125 99.257812 C 91.820312 99.632812 93.597656 99.90625 95.359375 100.078125 C 82.660156 77.882812 69.808594 55.800781 56.804688 33.839844 C 52.664062 48.230469 43.09375 56.023438 28.09375 57.21875 C 25.023438 56.996094 22.015625 56.449219 19.074219 55.578125 C 18.9375 55.710938 18.796875 55.851562 18.660156 55.984375 C 23.074219 63.300781 27.378906 70.683594 31.582031 78.136719 C 32.3125 80.917969 31.289062 82.558594 28.507812 83.054688 C 27.210938 82.789062 26.1875 82.105469 25.429688 81.007812 C 17.292969 67.195312 9.363281 53.25 1.640625 39.167969 C 0.953125 37.085938 0.335938 35.035156 -0.203125 33.019531 C -0.203125 29.871094 -0.203125 26.726562 -0.203125 23.585938 C 2.667969 10.59375 10.59375 2.667969 23.585938 -0.203125 Z M 144.578125 5.949219 C 151.027344 5.769531 157.453125 5.972656 163.855469 6.5625 C 165.304688 8.253906 165.851562 10.238281 165.496094 12.511719 C 159.617188 12.441406 153.738281 12.511719 147.859375 12.714844 C 144.601562 15.152344 141.9375 18.09375 139.863281 21.53125 C 139.796875 23.71875 139.726562 25.90625 139.65625 28.09375 C 139.617188 30.726562 139.820312 33.324219 140.273438 35.890625 C 142.527344 38.417969 144.785156 40.949219 147.039062 43.476562 C 147.589844 43.75 148.136719 44.023438 148.683594 44.296875 C 154.285156 44.503906 159.890625 44.570312 165.496094 44.503906 C 165.984375 47.085938 165.164062 49.070312 163.035156 50.449219 C 156.886719 50.722656 150.730469 50.722656 144.578125 50.449219 C 140.832031 47.113281 137.210938 43.625 133.710938 39.988281 C 133.4375 32.199219 133.4375 24.40625 133.710938 16.609375 C 137.539062 13.257812 141.164062 9.703125 144.578125 5.949219 Z M 24.40625 6.355469 C 33.90625 5.625 41.496094 9.042969 47.167969 16.609375 C 50.035156 23.640625 50.171875 30.75 47.578125 37.941406 C 42.132812 48.550781 33.589844 52.449219 21.945312 49.628906 C 9.890625 44.871094 4.898438 36.054688 6.972656 23.171875 C 9.664062 14.261719 15.476562 8.65625 24.40625 6.355469 Z M 26.042969 19.074219 C 35.21875 19.007812 38.84375 23.382812 36.914062 32.199219 C 33.175781 38.035156 28.320312 39.199219 22.351562 35.683594 C 18.277344 31.59375 17.800781 27.148438 20.917969 22.351562 C 22.386719 20.804688 24.09375 19.710938 26.042969 19.074219 Z M 150.730469 19.074219 C 151.277344 19.074219 151.824219 19.074219 152.371094 19.074219 C 152.371094 25.359375 152.371094 31.652344 152.371094 37.941406 C 150.132812 36.738281 148.152344 35.097656 146.425781 33.019531 C 146.152344 29.871094 146.152344 26.726562 146.425781 23.585938 C 147.945312 22.132812 149.382812 20.628906 150.730469 19.074219 Z M 158.9375 19.074219 C 163.859375 19.003906 168.78125 19.074219 173.699219 19.277344 C 175 20.578125 176.300781 21.875 177.597656 23.171875 C 177.871094 26.59375 177.871094 30.011719 177.597656 33.425781 C 176.160156 34.863281 174.726562 36.296875 173.289062 37.734375 C 168.507812 37.9375 163.722656 38.007812 158.9375 37.941406 C 158.9375 31.652344 158.9375 25.359375 158.9375 19.074219 Z M 184.363281 25.222656 C 189.289062 25.15625 194.210938 25.222656 199.132812 25.429688 C 200.089844 26.386719 201.046875 27.34375 202.003906 28.300781 C 201.046875 29.257812 200.089844 30.214844 199.132812 31.171875 C 194.210938 31.375 189.289062 31.445312 184.363281 31.378906 C 184.363281 29.328125 184.363281 27.277344 184.363281 25.222656 Z M 101.515625 97.003906 C 113.433594 103.339844 119.722656 113.320312 120.382812 126.941406 C 119.636719 142.730469 112.117188 153.871094 97.824219 160.371094 C 94.902344 161.441406 91.894531 162.128906 88.796875 162.421875 C 69.523438 162.695312 50.242188 162.695312 30.96875 162.421875 C 19.324219 160 13.171875 152.824219 12.511719 140.890625 C 12.667969 133.671875 15.675781 127.996094 21.53125 123.867188 C 28.546875 119.644531 35.589844 115.472656 42.65625 111.355469 C 48.824219 121.496094 54.839844 131.75 60.703125 142.117188 C 68.972656 154.175781 80.25 158.480469 94.539062 155.039062 C 103.933594 151.796875 110.15625 145.441406 113.203125 135.96875 C 114.777344 129.457031 114.503906 123.03125 112.382812 116.6875 C 108.820312 110.0625 105.195312 103.496094 101.515625 97.003906 Z M 82.648438 105.613281 C 96.300781 105.21875 104.570312 111.644531 107.460938 124.894531 C 108.320312 134.730469 104.558594 142.179688 96.179688 147.246094 C 85.636719 151.902344 76.40625 150.058594 68.496094 141.710938 C 61.492188 131.800781 61.765625 122.09375 69.316406 112.589844 C 73.019531 108.789062 77.464844 106.464844 82.648438 105.613281 Z M 83.878906 118.328125 C 92.21875 118.613281 95.703125 122.851562 94.335938 131.046875 C 91.136719 136.917969 86.554688 138.355469 80.59375 135.351562 C 75.128906 130.15625 75.128906 124.960938 80.59375 119.765625 C 81.746094 119.316406 82.839844 118.839844 83.878906 118.328125 Z M 31.378906 146.222656 C 35.613281 146.222656 39.851562 146.222656 44.09375 146.222656 C 44.09375 147.996094 44.09375 149.777344 44.09375 151.554688 C 39.851562 151.554688 35.613281 151.554688 31.378906 151.554688 C 31.378906 149.777344 31.378906 147.996094 31.378906 146.222656 Z M 5.949219 169.1875 C 46.144531 169.1875 86.339844 169.1875 126.53125 169.1875 C 126.53125 172.0625 126.53125 174.933594 126.53125 177.804688 C 108.621094 177.734375 90.710938 177.804688 72.800781 178.007812 C 69.558594 179.464844 69.148438 181.515625 71.574219 184.160156 C 85.789062 184.363281 100.007812 184.433594 114.230469 184.363281 C 114.230469 190.789062 114.230469 197.21875 114.230469 203.644531 C 82.234375 203.644531 50.242188 203.644531 18.253906 203.644531 C 18.253906 197.21875 18.253906 190.789062 18.253906 184.363281 C 32.609375 184.433594 46.964844 184.363281 61.320312 184.160156 C 62.492188 183.589844 63.039062 182.632812 62.960938 181.289062 C 62.996094 180.136719 62.585938 179.179688 61.726562 178.417969 C 43.160156 177.808594 24.566406 177.605469 5.949219 177.804688 C 5.949219 174.933594 5.949219 172.0625 5.949219 169.1875 Z M 5.949219 169.1875 "/>
</g>
</defs>
<g id="surface1">
<use xlink:href="#surface5" mask="url(#mask0)"/>
</g>
</svg>
