<?xml version="1.0" encoding="UTF-8"?>
<svg xmlns="http://www.w3.org/2000/svg" xmlns:xlink="http://www.w3.org/1999/xlink" width="800px" height="800px" viewBox="0 0 800 800" version="1.1">
<g id="surface1">
<path style=" stroke:none;fill-rule:evenodd;fill:rgb(91.764706%,42.352941%,21.176471%);fill-opacity:1;" d="M 419.992188 143.320312 C 414.472656 143.320312 409.992188 147.796875 409.992188 153.320312 L 409.992188 213.320312 C 409.992188 229.890625 396.5625 243.320312 379.992188 243.320312 L 86.660156 243.320312 C 81.136719 243.320312 76.660156 247.796875 76.660156 253.320312 L 76.660156 646.652344 C 76.660156 652.175781 81.136719 656.652344 86.660156 656.652344 L 713.328125 656.652344 C 718.851562 656.652344 723.328125 652.175781 723.328125 646.652344 L 723.328125 153.320312 C 723.328125 147.796875 718.851562 143.320312 713.328125 143.320312 Z M 389.992188 153.320312 C 389.992188 136.753906 403.425781 123.320312 419.992188 123.320312 L 713.328125 123.320312 C 729.894531 123.320312 743.328125 136.753906 743.328125 153.320312 L 743.328125 646.652344 C 743.328125 663.222656 729.894531 676.652344 713.328125 676.652344 L 86.660156 676.652344 C 70.089844 676.652344 56.660156 663.222656 56.660156 646.652344 L 56.660156 253.320312 C 56.660156 236.753906 70.089844 223.320312 86.660156 223.320312 L 379.992188 223.320312 C 385.515625 223.320312 389.992188 218.84375 389.992188 213.320312 Z M 189.992188 466.652344 C 189.992188 461.132812 194.472656 456.652344 199.992188 456.652344 L 399.992188 456.652344 C 405.515625 456.652344 409.992188 461.132812 409.992188 466.652344 C 409.992188 472.175781 405.515625 476.652344 399.992188 476.652344 L 199.992188 476.652344 C 194.472656 476.652344 189.992188 472.175781 189.992188 466.652344 Z M 199.992188 556.652344 C 194.472656 556.652344 189.992188 561.132812 189.992188 566.652344 C 189.992188 572.175781 194.472656 576.652344 199.992188 576.652344 L 466.660156 576.652344 C 472.183594 576.652344 476.660156 572.175781 476.660156 566.652344 C 476.660156 561.132812 472.183594 556.652344 466.660156 556.652344 Z M 199.992188 556.652344 "/>
</g>
</svg>
