<?xml version="1.0" encoding="UTF-8"?>
<svg xmlns="http://www.w3.org/2000/svg" xmlns:xlink="http://www.w3.org/1999/xlink" width="220px" height="220px" viewBox="0 0 220 220" version="1.1">
<g id="surface1">
<path style=" stroke:none;fill-rule:evenodd;fill:rgb(91.764706%,42.352941%,21.176471%);fill-opacity:1;" d="M 110 220 C 49.25 220 0 170.75 0 110 C 0 49.25 49.25 0 110 0 C 170.75 0 220 49.25 220 110 C 220 170.75 170.75 220 110 220 Z M 110 200 C 159.707031 200 200 159.707031 200 110 C 200 60.292969 159.707031 20 110 20 C 60.292969 20 20 60.292969 20 110 C 20 159.707031 60.292969 200 110 200 Z M 142.929688 72.929688 L 90 125.859375 L 67.070312 102.929688 L 52.929688 117.070312 L 90 154.140625 L 157.070312 87.070312 Z M 142.929688 72.929688 "/>
</g>
</svg>
