<?xml version="1.0" encoding="UTF-8"?>
<svg xmlns="http://www.w3.org/2000/svg" xmlns:xlink="http://www.w3.org/1999/xlink" width="310px" height="310px" viewBox="0 0 310 310" version="1.1">
<g id="surface1">
<path style=" stroke:none;fill-rule:nonzero;fill:rgb(0.784314%,0.392157%,0.784314%);fill-opacity:1;" d="M 80 0 L 225.882812 0 C 270.066406 0 305.882812 35.816406 305.882812 80 L 305.882812 225.882812 C 305.882812 270.066406 270.066406 305.882812 225.882812 305.882812 L 80 305.882812 C 35.816406 305.882812 0 270.066406 0 225.882812 L 0 80 C 0 35.816406 35.816406 0 80 0 Z M 80 0 "/>
<path style=" stroke:none;fill-rule:nonzero;fill:rgb(91.764706%,42.352941%,21.176471%);fill-opacity:1;" d="M 205.15625 186.261719 C 207.746094 189.355469 212.285156 189.5 215.597656 185.902344 C 227.621094 173.011719 234.246094 155.367188 234.246094 136.355469 C 234.246094 117.347656 227.476562 99.488281 215.597656 86.8125 C 212.285156 83.210938 207.746094 83.355469 205.15625 86.453125 C 202.636719 89.332031 203.425781 93.007812 206.234375 96.175781 C 215.742188 106.6875 220.996094 120.800781 220.996094 136.355469 C 220.996094 151.839844 215.742188 165.953125 206.234375 176.46875 C 203.425781 179.636719 202.636719 183.308594 205.15625 186.261719 Z M 105.5625 186.261719 C 108.085938 183.308594 107.21875 179.636719 104.484375 176.46875 C 94.976562 165.953125 89.722656 151.839844 89.722656 136.355469 C 89.722656 120.800781 94.976562 106.6875 104.484375 96.175781 C 107.21875 93.007812 108.085938 89.332031 105.5625 86.453125 C 102.972656 83.355469 98.433594 83.210938 95.121094 86.8125 C 83.238281 99.488281 76.472656 117.347656 76.472656 136.355469 C 76.472656 155.367188 83.097656 173.011719 95.121094 185.902344 C 98.433594 189.5 102.972656 189.355469 105.5625 186.261719 Z M 183.046875 165.304688 C 185.640625 168.402344 190.535156 168.472656 193.5625 164.871094 C 199.824219 157.3125 203.355469 147.160156 203.355469 136.355469 C 203.355469 125.484375 199.824219 115.328125 193.5625 107.839844 C 190.535156 104.167969 185.640625 104.3125 183.046875 107.335938 C 180.597656 110.289062 181.605469 113.746094 183.984375 117.058594 C 187.800781 122.242188 190.105469 129.15625 190.105469 136.355469 C 190.105469 143.484375 187.945312 150.542969 183.984375 155.585938 C 181.605469 158.894531 180.597656 162.425781 183.046875 165.304688 Z M 127.671875 165.304688 C 130.046875 162.425781 129.109375 158.894531 126.734375 155.585938 C 122.773438 150.542969 120.542969 143.484375 120.542969 136.355469 C 120.542969 129.15625 122.917969 122.242188 126.734375 117.058594 C 129.109375 113.746094 130.046875 110.289062 127.671875 107.335938 C 125.078125 104.3125 120.183594 104.167969 117.15625 107.839844 C 110.890625 115.328125 107.363281 125.484375 107.363281 136.355469 C 107.363281 147.160156 110.890625 157.3125 117.15625 164.871094 C 120.183594 168.472656 125.078125 168.402344 127.671875 165.304688 Z M 155.324219 219.746094 C 159.210938 219.746094 161.660156 216.9375 161.660156 212.6875 L 161.660156 148.816406 C 166.195312 146.511719 169.363281 141.828125 169.363281 136.355469 C 169.363281 128.507812 163.171875 122.316406 155.324219 122.316406 C 147.546875 122.316406 141.351562 128.507812 141.351562 136.355469 C 141.351562 141.828125 144.449219 146.582031 149.058594 148.816406 L 149.058594 212.6875 C 149.058594 216.863281 151.652344 219.746094 155.324219 219.746094 Z M 155.324219 219.746094 "/>
</g>
</svg>
