<?xml version="1.0" encoding="UTF-8"?>
<svg xmlns="http://www.w3.org/2000/svg" xmlns:xlink="http://www.w3.org/1999/xlink" width="220px" height="px" viewBox="0 0 220 240" version="1.1">
<g id="surface1">
<path style=" stroke:none;fill-rule:nonzero;fill:rgb(94.901961%,94.901961%,96.862745%);fill-opacity:1;" d="M 101.441406 34.148438 C 105.335938 27.714844 114.664062 27.714844 118.558594 34.148438 L 196.085938 162.324219 C 200.113281 168.988281 195.316406 177.5 187.527344 177.5 L 32.472656 177.5 C 24.683594 177.5 19.886719 168.988281 23.914062 162.324219 Z M 101.441406 34.148438 "/>
<path style=" stroke:none;fill-rule:nonzero;fill:rgb(5.882353%,5.882353%,5.882353%);fill-opacity:1;" d="M 118.300781 100.160156 L 121.421875 161 L 102.179688 161 L 105.429688 100.160156 Z M 111.800781 69.089844 C 114.832031 69.089844 117.347656 70.085938 119.339844 72.078125 C 121.332031 74.074219 122.328125 76.457031 122.328125 79.230469 C 122.328125 82.003906 121.332031 84.34375 119.339844 86.25 C 117.347656 88.242188 114.832031 89.238281 111.800781 89.238281 C 108.765625 89.238281 106.296875 88.242188 104.390625 86.25 C 102.484375 84.34375 101.53125 82.003906 101.53125 79.230469 C 101.53125 76.457031 102.484375 74.074219 104.390625 72.078125 C 106.296875 70.085938 108.765625 69.089844 111.800781 69.089844 Z M 111.800781 69.089844 "/>
</g>
</svg>
