<?xml version="1.0" encoding="UTF-8"?>
<svg xmlns="http://www.w3.org/2000/svg" xmlns:xlink="http://www.w3.org/1999/xlink" width="220px" height="210px" viewBox="0 0 220 210" version="1.1">
<g id="surface1">
<path style="fill:none;stroke-width:1;stroke-linecap:round;stroke-linejoin:round;stroke:rgb(100%,100%,100%);stroke-opacity:1;stroke-miterlimit:4;" d="M 3.142578 13.430469 L 4.055859 3.798828 L 8.247656 3.798828 L 9.016406 11.903516 " transform="matrix(10,0,0,10,0,0)"/>
<path style="fill:none;stroke-width:1;stroke-linecap:round;stroke-linejoin:round;stroke:rgb(100%,100%,100%);stroke-opacity:1;stroke-miterlimit:4;" d="M 1 20.411328 L 20.853516 20.411328 L 20.853516 10.097266 C 20.853516 9.947266 20.819531 9.799219 20.753516 9.664453 C 20.687891 9.530078 20.592188 9.412109 20.474219 9.320312 C 20.355859 9.228516 20.218359 9.165234 20.071875 9.135156 C 19.925781 9.105078 19.774219 9.108984 19.629688 9.146875 L 1.661328 13.816016 C 1.472266 13.865234 1.304297 13.976172 1.184766 14.13125 C 1.064844 14.286719 1 14.477734 1 14.673828 Z M 1 20.411328 " transform="matrix(10,0,0,10,0,0)"/>
<path style="fill:none;stroke-width:1;stroke-linecap:round;stroke-linejoin:round;stroke:rgb(100%,100%,100%);stroke-opacity:1;stroke-miterlimit:4;" d="M 17.765625 20.410156 L 13.353516 20.410156 L 13.353516 16.443359 C 13.353516 16.202734 13.448438 15.972266 13.617969 15.802344 C 13.787109 15.632422 14.016406 15.537109 14.255859 15.537109 L 16.863281 15.537109 C 17.102344 15.537109 17.332031 15.632422 17.501172 15.802344 C 17.670313 15.972266 17.765625 16.202734 17.765625 16.443359 Z M 17.765625 20.410156 " transform="matrix(10,0,0,10,0,0)"/>
<path style="fill:none;stroke-width:1;stroke-linecap:round;stroke-linejoin:round;stroke:rgb(100%,100%,100%);stroke-opacity:1;stroke-miterlimit:4;" d="M 3.707031 7.742188 L 8.219141 7.742188 " transform="matrix(10,0,0,10,0,0)"/>
<path style="fill:none;stroke-width:1;stroke-linecap:round;stroke-linejoin:round;stroke:rgb(100%,100%,100%);stroke-opacity:1;stroke-miterlimit:4;" d="M 18.598047 0.494141 C 18.201953 0.494922 17.813281 0.601172 17.471484 0.801563 C 17.129297 1.001953 16.846094 1.289453 16.650391 1.634766 C 16.446875 1.496484 16.209766 1.416016 15.964063 1.402734 C 15.718359 1.389453 15.473828 1.443359 15.256641 1.558984 C 15.039453 1.674609 14.857813 1.847656 14.730859 2.058984 C 14.603906 2.270703 14.537109 2.512891 14.537109 2.759766 C 14.537109 3.006641 14.603906 3.248828 14.730859 3.460547 C 14.857813 3.672266 15.039453 3.844922 15.256641 3.960547 C 15.473828 4.076172 15.718359 4.130469 15.964063 4.116797 C 16.209766 4.103516 16.446875 4.023438 16.650391 3.884766 C 16.847656 4.230469 17.132031 4.517969 17.475391 4.717969 C 17.818359 4.918359 18.207812 5.023828 18.604688 5.024609 C 19.001563 5.025 19.391406 4.920703 19.735156 4.721875 C 20.078906 4.522656 20.364453 4.235938 20.562891 3.891016 C 20.760938 3.545703 20.865234 3.154297 20.864453 2.755859 C 20.863672 2.357422 20.758594 1.966406 20.559375 1.621875 C 20.360156 1.277344 20.073828 0.991406 19.729297 0.793359 C 19.385156 0.595703 18.994531 0.492188 18.598047 0.494141 Z M 18.598047 0.494141 " transform="matrix(10,0,0,10,0,0)"/>
<path style="fill:none;stroke-width:1;stroke-linecap:round;stroke-linejoin:round;stroke:rgb(100%,100%,100%);stroke-opacity:1;stroke-miterlimit:4;" d="M 10.023438 2.759375 C 10.023438 2.937891 10.058594 3.114844 10.126563 3.279688 C 10.194531 3.444531 10.294141 3.594531 10.419922 3.720703 C 10.545703 3.846875 10.694922 3.946875 10.858984 4.015234 C 11.023438 4.083594 11.199219 4.11875 11.376953 4.11875 C 11.554688 4.11875 11.730859 4.083594 11.894922 4.015234 C 12.059375 3.946875 12.208594 3.846875 12.334375 3.720703 C 12.459766 3.594531 12.559766 3.444531 12.627734 3.279688 C 12.695703 3.114844 12.730859 2.937891 12.730859 2.759375 C 12.730859 2.580859 12.695703 2.404297 12.627734 2.239453 C 12.559766 2.074609 12.459766 1.924609 12.334375 1.798438 C 12.208594 1.672266 12.059375 1.572266 11.894922 1.503906 C 11.730859 1.435547 11.554688 1.400391 11.376953 1.400391 C 11.199219 1.400391 11.023438 1.435547 10.858984 1.503906 C 10.694922 1.572266 10.545703 1.672266 10.419922 1.798438 C 10.294141 1.924609 10.194531 2.074609 10.126563 2.239453 C 10.058594 2.404297 10.023438 2.580859 10.023438 2.759375 Z M 10.023438 2.759375 " transform="matrix(10,0,0,10,0,0)"/>
<path style="fill:none;stroke-width:1;stroke-linecap:round;stroke-linejoin:round;stroke:rgb(100%,100%,100%);stroke-opacity:1;stroke-miterlimit:4;" d="M 4.609375 15.898438 L 5.511719 15.898438 " transform="matrix(10,0,0,10,0,0)"/>
<path style="fill:none;stroke-width:1;stroke-linecap:round;stroke-linejoin:round;stroke:rgb(100%,100%,100%);stroke-opacity:1;stroke-miterlimit:4;" d="M 4.609375 17.708984 L 5.511719 17.708984 " transform="matrix(10,0,0,10,0,0)"/>
<path style="fill:none;stroke-width:1;stroke-linecap:round;stroke-linejoin:round;stroke:rgb(100%,100%,100%);stroke-opacity:1;stroke-miterlimit:4;" d="M 9.121094 15.898438 L 10.023438 15.898438 " transform="matrix(10,0,0,10,0,0)"/>
<path style="fill:none;stroke-width:1;stroke-linecap:round;stroke-linejoin:round;stroke:rgb(100%,100%,100%);stroke-opacity:1;stroke-miterlimit:4;" d="M 9.121094 17.708984 L 10.023438 17.708984 " transform="matrix(10,0,0,10,0,0)"/>
</g>
</svg>
