<?xml version="1.0" encoding="UTF-8"?>
<svg xmlns="http://www.w3.org/2000/svg" xmlns:xlink="http://www.w3.org/1999/xlink" width="340px" height="320px" viewBox="0 0 340 320" version="1.1">
<g id="surface1">
<path style=" stroke:none;fill-rule:nonzero;fill:rgb(94.901961%,94.901961%,96.862745%);fill-opacity:1;" d="M 9.398438 110 L 9.398438 40 L 20.101562 40 L 50.699219 91.101562 L 45.101562 91.101562 L 75.199219 40 L 85.898438 40 L 86 110 L 73.699219 110 L 73.601562 59.300781 L 76.199219 59.300781 L 50.601562 102 L 44.800781 102 L 18.800781 59.300781 L 21.800781 59.300781 L 21.800781 110 Z M 119.109375 110 L 119.109375 51 L 95.90625 51 L 95.90625 40 L 155.308594 40 L 155.308594 51 L 132.109375 51 L 132.109375 110 Z M 119.109375 110 "/>
<path style="fill:none;stroke-width:0.5;stroke-linecap:butt;stroke-linejoin:miter;stroke:rgb(94.901961%,94.901961%,96.862745%);stroke-opacity:1;stroke-miterlimit:4;" d="M 12 25.402734 L 14.879688 20.855469 " transform="matrix(10,0,0,10,0,0)"/>
<path style="fill:none;stroke-width:0.5;stroke-linecap:butt;stroke-linejoin:miter;stroke:rgb(94.901961%,94.901961%,96.862745%);stroke-opacity:1;stroke-miterlimit:4;" d="M 15.789062 21.008203 L 15.789062 23.281641 L 17.759375 23.281641 L 17.759375 22.372266 L 19.123438 22.372266 L 17.759375 21.462891 L 17.759375 19.947266 M 18.365625 19.189453 L 18.365625 20.401953 L 21.397266 21.917578 L 23.973828 19.189453 L 20.942578 17.521875 L 19.426953 18.280078 M 21.397266 14.945312 L 20.032813 16.00625 L 20.942578 17.370313 L 22.609766 16.157813 L 22.458203 17.673438 L 25.034766 18.886328 L 26.247266 18.582812 M 27.763281 21.917578 L 26.550781 23.281641 L 26.247266 24.191016 L 26.702344 25.251953 M 22.609766 27.677344 L 22.003516 26.616406 L 21.245703 26.313281 L 18.365625 28.132031 L 18.820312 26.313281 L 27.157031 21.462891 M 27.157031 24.948828 L 32.007031 21.462891 M 17.153125 31.466406 L 21.245703 27.677344 " transform="matrix(10,0,0,10,0,0)"/>
<path style="fill:none;stroke-width:0.5;stroke-linecap:butt;stroke-linejoin:miter;stroke:rgb(94.901961%,94.901961%,96.862745%);stroke-opacity:1;stroke-miterlimit:4;" d="M 23.21875 20.248828 L 23.21875 21.916016 L 23.825 22.371094 L 24.43125 21.764453 L 24.43125 20.248828 L 23.825 19.642578 " transform="matrix(10,0,0,10,0,0)"/>
<path style="fill:none;stroke-width:0.5;stroke-linecap:butt;stroke-linejoin:miter;stroke:rgb(94.901961%,94.901961%,96.862745%);stroke-opacity:1;stroke-miterlimit:4;" d="M 13.208984 19.642578 L 13.208984 23.128516 " transform="matrix(10,0,0,10,0,0)"/>
<path style="fill:none;stroke-width:0.5;stroke-linecap:butt;stroke-linejoin:miter;stroke:rgb(94.901961%,94.901961%,96.862745%);stroke-opacity:1;stroke-miterlimit:4;" d="M 12 18.430469 L 12 25.402734 L 13.81875 26.160547 L 15.485938 26.312109 L 18.366016 28.13125 L 15.789453 30.253125 L 15.789453 31.1625 L 16.244141 31.617188 L 17.001953 31.617188 L 22.155078 29.040625 L 22.761328 27.828125 L 27.157031 25.099609 L 28.217969 25.705859 L 33.219922 21.462109 L 33.219922 20.855859 L 32.916797 20.249609 L 32.158984 20.098047 L 27.763281 21.916797 L 27.157031 21.462109 L 27.157031 19.036719 L 26.399219 18.733984 L 26.399219 17.217969 L 23.367969 15.550781 L 22.458594 16.005469 L 22.155078 15.550781 L 22.155078 12.064844 L 22.761328 11.610156 L 22.761328 10.851953 L 22.155078 10.094141 L 21.548828 10.094141 L 21.548828 9.639453 L 22.003516 8.881641 L 22.003516 7.820703 L 21.548828 7.214453 L 21.548828 6.305078 L 22.155078 5.395703 L 22.155078 3.425 L 22.761328 3.425 L 22.761328 1 L 21.700391 1 L 21.700391 1.757812 L 21.094141 1.757812 L 21.094141 3.425 L 21.548828 3.425 L 21.548828 4.637891 L 20.639453 4.637891 L 20.336328 4.941016 L 20.336328 5.850391 L 20.639453 6.305078 L 20.639453 7.214453 L 20.336328 7.517578 L 20.336328 9.184766 L 21.094141 9.942578 L 21.094141 12.064844 L 21.700391 12.064844 L 21.700391 15.096094 L 21.094141 14.035156 L 20.336328 13.580469 L 19.426953 14.641406 L 19.275391 18.278906 L 17.759766 19.794922 L 17.305078 19.188672 L 16.244141 19.491406 L 15.789453 20.855859 L 15.03125 20.855859 L 13.515625 18.278906 L 12.757812 17.975781 Z M 12 18.430469 " transform="matrix(10,0,0,10,0,0)"/>
</g>
</svg>
