<svg xmlns="http://www.w3.org/2000/svg"  viewBox="0 0 24 24" width="48px" height="48px" fill-rule="evenodd" clip-rule="evenodd" baseProfile="basic"><circle cx="12" cy="12" r="9" fill="none" stroke="#000" stroke-linecap="round" stroke-linejoin="round" stroke-miterlimit="10" stroke-width="2"/><path fill="#0b0000" fill-rule="evenodd" d="M12,3c-4.967,0-9,4.033-9,9s4.033,9,9,9s9-4.033,9-9	S16.967,3,12,3z M13,17c0,0.552-0.447,1-1,1s-1-0.448-1-1v-5c0-0.552,0.447-1,1-1s1,0.448,1,1V17z M12,9c-0.552,0-1-0.448-1-1	s0.448-1,1-1s1,0.448,1,1S12.552,9,12,9z" clip-rule="evenodd"/></svg>