<?xml version="1.0" encoding="UTF-8"?>
<svg xmlns="http://www.w3.org/2000/svg" xmlns:xlink="http://www.w3.org/1999/xlink" width="310px" height="310px" viewBox="0 0 310 310" version="1.1">
<g id="surface1">
<path style=" stroke:none;fill-rule:nonzero;fill:rgb(0.784314%,0.392157%,0.784314%);fill-opacity:1;" d="M 80 0 L 225.882812 0 C 270.066406 0 305.882812 35.816406 305.882812 80 L 305.882812 225.882812 C 305.882812 270.066406 270.066406 305.882812 225.882812 305.882812 L 80 305.882812 C 35.816406 305.882812 0 270.066406 0 225.882812 L 0 80 C 0 35.816406 35.816406 0 80 0 Z M 80 0 "/>
<path style=" stroke:none;fill-rule:nonzero;fill:rgb(91.764706%,42.352941%,21.176471%);fill-opacity:1;" d="M 154.226562 61.191406 C 127.945312 61.191406 107.0625 82.148438 107.0625 108.285156 C 107.0625 127.65625 118.4375 144.796875 136.441406 151.996094 L 136.441406 221.777344 C 136.441406 223.863281 137.089844 225.738281 138.671875 227.320312 L 151.203125 239.417969 C 152.789062 241.003906 155.8125 241.363281 157.828125 239.347656 L 180.511719 216.664062 C 182.601562 214.574219 182.527344 211.550781 180.511719 209.535156 L 167.476562 196.644531 L 185.769531 178.355469 C 187.640625 176.410156 187.714844 173.386719 185.625 171.296875 L 167.839844 153.4375 C 189.367188 144.292969 201.324219 127.800781 201.324219 108.285156 C 201.324219 82.21875 180.367188 61.191406 154.226562 61.191406 Z M 154.226562 104.972656 C 147.242188 104.972656 141.554688 99.285156 141.554688 92.300781 C 141.554688 85.242188 147.171875 79.625 154.226562 79.625 C 161.214844 79.625 166.902344 85.316406 166.902344 92.300781 C 166.902344 99.285156 161.214844 104.972656 154.226562 104.972656 Z M 154.226562 104.972656 "/>
</g>
</svg>
