<?xml version="1.0" encoding="UTF-8"?>
<svg xmlns="http://www.w3.org/2000/svg" xmlns:xlink="http://www.w3.org/1999/xlink" width="230px" height="230px" viewBox="0 0 230 230" version="1.1">
<g id="surface1">
<path style="fill:none;stroke-width:1;stroke-linecap:round;stroke-linejoin:round;stroke:rgb(100%,100%,100%);stroke-opacity:1;stroke-miterlimit:4;" d="M 19.048828 9.34375 L 19.048828 19.310547 " transform="matrix(10,0,0,10,0,0)"/>
<path style="fill:none;stroke-width:1;stroke-linecap:round;stroke-linejoin:round;stroke:rgb(100%,100%,100%);stroke-opacity:1;stroke-miterlimit:4;" d="M 1.902344 19.310156 L 1.902344 8.890234 C 1.902344 8.530078 2.044922 8.184375 2.298828 7.929297 C 2.552734 7.674609 2.896875 7.53125 3.255859 7.53125 L 10.926563 7.53125 " transform="matrix(10,0,0,10,0,0)"/>
<path style="fill:none;stroke-width:1;stroke-linecap:round;stroke-linejoin:round;stroke:rgb(100%,100%,100%);stroke-opacity:1;stroke-miterlimit:4;" d="M 12.731641 19.310547 L 12.731641 20.216406 L 8.219531 20.216406 L 8.219531 19.310547 L 1 19.310547 L 1 21.122656 C 1 21.362891 1.094922 21.593359 1.264453 21.763281 C 1.433594 21.933203 1.663281 22.028906 1.902344 22.028906 L 19.048438 22.028906 C 19.287891 22.028906 19.517578 21.933203 19.686719 21.763281 C 19.855859 21.593359 19.951172 21.362891 19.951172 21.122656 L 19.951172 19.310547 Z M 12.731641 19.310547 " transform="matrix(10,0,0,10,0,0)"/>
<path style="fill:none;stroke-width:1;stroke-linecap:round;stroke-linejoin:round;stroke:rgb(100%,100%,100%);stroke-opacity:1;stroke-miterlimit:4;" d="M 14.986719 17.499219 C 14.61875 16.928516 13.397656 16.513672 11.869141 15.945312 C 11.436719 15.783984 11.508203 14.653125 11.699219 14.442188 C 12.003516 14.111328 12.234375 13.719531 12.377344 13.292578 C 12.519922 12.865625 12.571484 12.413281 12.527734 11.964844 C 12.553906 11.685547 12.520703 11.403906 12.430469 11.138281 C 12.339844 10.872656 12.194531 10.629688 12.003516 10.424609 C 11.8125 10.219531 11.580469 10.057813 11.322266 9.95 C 11.064453 9.841797 10.786719 9.789844 10.507422 9.797656 C 10.228125 9.790234 9.950781 9.842578 9.692969 9.950781 C 9.435547 10.059375 9.203906 10.221094 9.013281 10.425781 C 8.822656 10.630859 8.677344 10.873828 8.587109 11.139063 C 8.496875 11.404297 8.463281 11.685938 8.489453 11.964844 C 8.445703 12.413281 8.497266 12.865625 8.640234 13.292578 C 8.783203 13.719531 9.014453 14.111328 9.31875 14.442188 C 9.509375 14.653125 9.580469 15.783984 9.149219 15.945312 C 7.614844 16.513672 6.398438 16.928516 6.03125 17.499219 " transform="matrix(10,0,0,10,0,0)"/>
<path style="fill:none;stroke-width:1;stroke-linecap:round;stroke-linejoin:round;stroke:rgb(100%,100%,100%);stroke-opacity:1;stroke-miterlimit:4;" d="M 21.756641 2.095703 L 19.951953 2.623828 L 19.951953 2.095703 C 19.951953 1.855078 19.856641 1.624609 19.6875 1.454688 C 19.518359 1.284766 19.288672 1.189453 19.049219 1.189453 L 13.634766 1.189453 C 13.395313 1.189453 13.166016 1.284766 12.996875 1.454688 C 12.827344 1.624609 12.732422 1.855078 12.732422 2.095703 L 12.732422 6.625781 C 12.732422 6.866406 12.827344 7.096875 12.996875 7.266797 C 13.166016 7.436719 13.395313 7.532031 13.634766 7.532031 L 19.049219 7.532031 C 19.288672 7.532031 19.518359 7.436719 19.6875 7.266797 C 19.856641 7.096875 19.951953 6.866406 19.951953 6.625781 L 19.951953 6.021484 L 21.756641 6.625781 Z M 21.756641 2.095703 " transform="matrix(10,0,0,10,0,0)"/>
</g>
</svg>
