<?xml version="1.0" encoding="UTF-8"?>
<svg xmlns="http://www.w3.org/2000/svg" xmlns:xlink="http://www.w3.org/1999/xlink" width="120px" height="70px" viewBox="0 0 120 70" version="1.1">
<g id="surface1">
<path style=" stroke:none;fill-rule:nonzero;fill:rgb(100%,100%,100%);fill-opacity:1;" d="M 30.472656 1.863281 C 30.976562 0.730469 32.101562 0 33.34375 0 L 33.832031 0 C 36 0 37.519531 2.136719 36.804688 4.183594 L 15.355469 65.851562 C 14.492188 68.335938 12.152344 70 9.523438 70 C 5.050781 70 2.0625 65.386719 3.886719 61.304688 Z M 30.472656 1.863281 "/>
<path style=" stroke:none;fill-rule:nonzero;fill:rgb(100%,100%,100%);fill-opacity:1;" d="M 89.527344 1.863281 C 89.023438 0.730469 87.898438 0 86.65625 0 L 86.167969 0 C 84 0 82.480469 2.136719 83.195312 4.183594 L 104.644531 65.851562 C 105.507812 68.335938 107.847656 70 110.476562 70 C 114.949219 70 117.9375 65.386719 116.113281 61.304688 Z M 89.527344 1.863281 "/>
<path style=" stroke:none;fill-rule:nonzero;fill:rgb(100%,100%,100%);fill-opacity:1;" d="M 60.003906 0 C 62.402344 0 64.351562 1.945312 64.351562 4.347656 L 64.351562 9.652344 C 64.351562 12.054688 62.402344 14 60.003906 14 C 57.601562 14 55.65625 12.054688 55.65625 9.652344 L 55.65625 4.347656 C 55.65625 1.945312 57.601562 0 60.003906 0 Z M 60.003906 0 "/>
<path style=" stroke:none;fill-rule:nonzero;fill:rgb(100%,100%,100%);fill-opacity:1;" d="M 60.003906 21.992188 C 62.402344 21.992188 64.351562 23.9375 64.351562 26.339844 L 64.351562 33.644531 C 64.351562 36.046875 62.402344 37.992188 60.003906 37.992188 C 57.601562 37.992188 55.65625 36.046875 55.65625 33.644531 L 55.65625 26.339844 C 55.65625 23.9375 57.601562 21.992188 60.003906 21.992188 Z M 60.003906 21.992188 "/>
<path style=" stroke:none;fill-rule:nonzero;fill:rgb(100%,100%,100%);fill-opacity:1;" d="M 60.003906 48.007812 C 62.402344 48.007812 64.351562 49.953125 64.351562 52.355469 L 64.351562 65.660156 C 64.351562 68.0625 62.402344 70.007812 60.003906 70.007812 C 57.601562 70.007812 55.65625 68.0625 55.65625 65.660156 L 55.65625 52.355469 C 55.65625 49.953125 57.601562 48.007812 60.003906 48.007812 Z M 60.003906 48.007812 "/>
</g>
</svg>
