<?xml version="1.0" encoding="UTF-8"?>
<svg xmlns="http://www.w3.org/2000/svg" xmlns:xlink="http://www.w3.org/1999/xlink" width="220px" height="230px" viewBox="0 0 220 230" version="1.1">
<g id="surface1">
<path style="fill:none;stroke-width:1;stroke-linecap:round;stroke-linejoin:round;stroke:rgb(100%,100%,100%);stroke-opacity:1;stroke-miterlimit:4;" d="M 4.962891 11.734766 L 4.962891 2.324219 C 4.962891 2.083594 5.057813 1.853125 5.227344 1.683203 C 5.396484 1.513281 5.626172 1.417969 5.865234 1.417969 L 19.964844 1.417969 C 20.204297 1.417969 20.433594 1.513281 20.602734 1.683203 C 20.772266 1.853125 20.867188 2.083594 20.867188 2.324219 L 20.867188 20.876953 C 20.867188 21.117188 20.772266 21.347656 20.602734 21.517578 C 20.433594 21.6875 20.204297 21.782813 19.964844 21.782813 L 15.041016 21.782813 " transform="matrix(10,0,0,10,0,0)"/>
<path style="fill:none;stroke-width:1;stroke-linecap:round;stroke-linejoin:round;stroke:rgb(100%,100%,100%);stroke-opacity:1;stroke-miterlimit:4;" d="M 1.902344 14.337891 L 11.201172 14.337891 C 11.201172 14.337891 12.103516 14.337891 12.103516 15.244141 L 12.103516 20.871484 C 12.103516 20.871484 12.103516 21.777734 11.201172 21.777734 L 1.902344 21.777734 C 1.902344 21.777734 1 21.777734 1 20.871484 L 1 15.244141 C 1 15.244141 1 14.337891 1.902344 14.337891 Z M 1.902344 14.337891 " transform="matrix(10,0,0,10,0,0)"/>
<path style="fill:none;stroke-width:1;stroke-linecap:butt;stroke-linejoin:miter;stroke:rgb(100%,100%,100%);stroke-opacity:1;stroke-miterlimit:10;" d="M 7.052734 4.946484 C 7.052734 5.342188 7.209375 5.722266 7.488281 6.002344 C 7.767188 6.282422 8.145313 6.439453 8.539844 6.439453 C 8.934375 6.439453 9.3125 6.282422 9.591406 6.002344 C 9.870313 5.722266 10.026953 5.342188 10.026953 4.946484 C 10.026953 4.550391 9.870313 4.170703 9.591406 3.890625 C 9.3125 3.610547 8.934375 3.453125 8.539844 3.453125 C 8.145313 3.453125 7.767188 3.610547 7.488281 3.890625 C 7.209375 4.170703 7.052734 4.550391 7.052734 4.946484 Z M 7.052734 4.946484 " transform="matrix(10,0,0,10,0,0)"/>
<path style="fill:none;stroke-width:1;stroke-linecap:butt;stroke-linejoin:miter;stroke:rgb(100%,100%,100%);stroke-opacity:1;stroke-miterlimit:10;" d="M 2.697266 17.138281 C 2.697266 17.422266 2.809375 17.694531 3.009375 17.894922 C 3.209375 18.095703 3.480469 18.208594 3.762891 18.208594 C 4.045703 18.208594 4.316797 18.095703 4.516797 17.894922 C 4.716406 17.694531 4.828906 17.422266 4.828906 17.138281 C 4.828906 16.854688 4.716406 16.582422 4.516797 16.381641 C 4.316797 16.18125 4.045703 16.068359 3.762891 16.068359 C 3.480469 16.068359 3.209375 16.18125 3.009375 16.381641 C 2.809375 16.582422 2.697266 16.854688 2.697266 17.138281 Z M 2.697266 17.138281 " transform="matrix(10,0,0,10,0,0)"/>
<path style="fill:none;stroke-width:1;stroke-linecap:round;stroke-linejoin:round;stroke:rgb(100%,100%,100%);stroke-opacity:1;stroke-miterlimit:4;" d="M 13.304688 4.181641 L 18.203906 4.181641 " transform="matrix(10,0,0,10,0,0)"/>
<path style="fill:none;stroke-width:1;stroke-linecap:round;stroke-linejoin:round;stroke:rgb(100%,100%,100%);stroke-opacity:1;stroke-miterlimit:4;" d="M 13.304688 7.039062 L 18.203906 7.039062 " transform="matrix(10,0,0,10,0,0)"/>
<path style="fill:none;stroke-width:1;stroke-linecap:round;stroke-linejoin:round;stroke:rgb(100%,100%,100%);stroke-opacity:1;stroke-miterlimit:4;" d="M 5.888672 19.416016 L 9.665234 19.416016 " transform="matrix(10,0,0,10,0,0)"/>
</g>
</svg>
