<svg width="25" height="26" viewBox="0 0 25 26" fill="none" xmlns="http://www.w3.org/2000/svg">
<path d="M24.9093 23.7539L17.687 15.9977C18.8509 14.2802 19.477 12.2104 19.4751 10.0864C19.4751 4.52703 15.2627 0.00390625 10.0852 0.00390625C4.90774 0.00390625 0.695312 4.52703 0.695312 10.0864C0.695312 15.6458 4.90774 20.1689 10.0852 20.1689C12.0633 20.171 13.991 19.4987 15.5904 18.2489L22.8139 26.0039L24.9093 23.7539ZM10.0852 16.9845C8.81446 16.9847 7.5722 16.5801 6.51555 15.8221C5.45889 15.0641 4.63531 13.9867 4.14896 12.7261C3.6626 11.4655 3.53532 10.0783 3.78321 8.74006C4.03109 7.40177 4.64301 6.17247 5.54158 5.20763C6.44015 4.24278 7.585 3.58573 8.83136 3.31956C10.0777 3.05339 11.3696 3.19006 12.5436 3.71229C13.7176 4.23452 14.721 5.11884 15.427 6.25343C16.1329 7.38802 16.5096 8.72191 16.5095 10.0864C16.5075 11.9152 15.83 13.6686 14.6257 14.9617C13.4213 16.2549 11.7884 16.9824 10.0852 16.9845Z" fill="#EA6C36"/>
</svg>
