<?xml version="1.0" encoding="UTF-8"?>
<svg xmlns="http://www.w3.org/2000/svg" xmlns:xlink="http://www.w3.org/1999/xlink" width="120px" height="120px" viewBox="0 0 120 120" version="1.1">
<g id="surface1">
<path style="fill:none;stroke-width:1.25908;stroke-linecap:butt;stroke-linejoin:miter;stroke:rgb(100%,100%,100%);stroke-opacity:1;stroke-miterlimit:4;" d="M 11.370313 6 C 11.370313 8.966016 8.966016 11.370313 6 11.370313 C 3.033984 11.370313 0.629688 8.966016 0.629688 6 C 0.629688 3.033984 3.033984 0.629688 6 0.629688 C 8.966016 0.629688 11.370313 3.033984 11.370313 6 Z M 11.370313 6 " transform="matrix(10,0,0,10,0,0)"/>
<path style=" stroke:none;fill-rule:nonzero;fill:rgb(100%,100%,100%);fill-opacity:1;" d="M 33.1875 59.996094 C 33.1875 63.523438 30.328125 66.378906 26.804688 66.378906 C 23.277344 66.378906 20.417969 63.523438 20.417969 59.996094 C 20.417969 56.472656 23.277344 53.613281 26.804688 53.613281 C 30.328125 53.613281 33.1875 56.472656 33.1875 59.996094 Z M 33.1875 59.996094 "/>
<path style=" stroke:none;fill-rule:nonzero;fill:rgb(100%,100%,100%);fill-opacity:1;" d="M 99.574219 59.996094 C 99.574219 63.523438 96.714844 66.378906 93.191406 66.378906 C 89.664062 66.378906 86.804688 63.523438 86.804688 59.996094 C 86.804688 56.472656 89.664062 53.613281 93.191406 53.613281 C 96.714844 53.613281 99.574219 56.472656 99.574219 59.996094 Z M 99.574219 59.996094 "/>
<path style=" stroke:none;fill-rule:nonzero;fill:rgb(100%,100%,100%);fill-opacity:1;" d="M 41.046875 41.039062 C 38.554688 43.53125 34.511719 43.53125 32.019531 41.039062 C 29.527344 38.546875 29.527344 34.507812 32.019531 32.011719 C 34.511719 29.519531 38.554688 29.519531 41.046875 32.011719 C 43.539062 34.507812 43.539062 38.546875 41.046875 41.039062 Z M 41.046875 41.039062 "/>
<path style=" stroke:none;fill-rule:nonzero;fill:rgb(100%,100%,100%);fill-opacity:1;" d="M 87.988281 87.992188 C 85.496094 90.484375 81.457031 90.484375 78.964844 87.992188 C 76.46875 85.5 76.46875 81.460938 78.964844 78.964844 C 81.457031 76.472656 85.496094 76.472656 87.988281 78.964844 C 90.484375 81.460938 90.484375 85.5 87.988281 87.992188 Z M 87.988281 87.992188 "/>
<path style=" stroke:none;fill-rule:nonzero;fill:rgb(100%,100%,100%);fill-opacity:1;" d="M 63.773438 68.863281 C 60.285156 72.351562 54.628906 72.351562 51.136719 68.863281 C 47.648438 65.375 47.648438 59.714844 51.136719 56.226562 C 54.628906 52.734375 85.816406 27.203125 89.308594 30.695312 C 92.796875 34.183594 67.265625 65.375 63.773438 68.863281 Z M 63.773438 68.863281 "/>
<path style=" stroke:none;fill-rule:nonzero;fill:rgb(100%,100%,100%);fill-opacity:1;" d="M 60.003906 33.195312 C 56.476562 33.195312 53.621094 30.339844 53.621094 26.8125 C 53.621094 23.289062 56.476562 20.429688 60.003906 20.429688 C 63.527344 20.429688 66.386719 23.289062 66.386719 26.8125 C 66.386719 30.339844 63.527344 33.195312 60.003906 33.195312 Z M 60.003906 33.195312 "/>
<path style=" stroke:none;fill-rule:nonzero;fill:rgb(100%,100%,100%);fill-opacity:1;" d="M 32.015625 87.988281 C 29.523438 85.496094 29.523438 81.457031 32.015625 78.964844 C 34.507812 76.46875 38.550781 76.46875 41.042969 78.964844 C 43.535156 81.457031 43.535156 85.496094 41.042969 87.988281 C 38.550781 90.484375 34.507812 90.484375 32.015625 87.988281 Z M 32.015625 87.988281 "/>
</g>
</svg>
