<?xml version="1.0" encoding="UTF-8"?>
<svg xmlns="http://www.w3.org/2000/svg" xmlns:xlink="http://www.w3.org/1999/xlink" width="440px" height="440px" viewBox="0 0 440 440" version="1.1">
<g id="surface1">
<path style="fill-rule:nonzero;fill:rgb(0%,0%,0%);fill-opacity:0.2;stroke-width:1;stroke-linecap:butt;stroke-linejoin:miter;stroke:rgb(100%,100%,100%);stroke-opacity:1;stroke-miterlimit:4;" d="M 43.5 22 C 43.5 33.874219 33.874219 43.5 22 43.5 C 10.125781 43.5 0.5 33.874219 0.5 22 C 0.5 10.125781 10.125781 0.5 22 0.5 C 33.874219 0.5 43.5 10.125781 43.5 22 Z M 43.5 22 " transform="matrix(10,0,0,10,0,0)"/>
<path style=" stroke:none;fill-rule:nonzero;fill:rgb(100%,100%,100%);fill-opacity:1;" d="M 296.085938 167.824219 L 275.21875 167.824219 L 263.695312 150.433594 C 259.347656 143.914062 251.738281 140 243.914062 140 L 196.085938 140 C 188.261719 140 180.652344 143.914062 176.304688 150.433594 L 164.78125 167.824219 L 143.914062 167.824219 C 130.652344 167.824219 120 178.476562 120 191.738281 L 120 276.085938 C 120 289.347656 130.652344 300 143.914062 300 L 296.085938 300 C 309.347656 300 320 289.347656 320 276.085938 L 320 191.738281 C 320 178.476562 309.347656 167.824219 296.085938 167.824219 Z M 220 280.433594 C 190.21875 280.433594 166.085938 256.304688 166.085938 226.523438 C 166.085938 196.738281 190.21875 172.824219 220 172.824219 C 249.78125 172.824219 273.914062 196.957031 273.914062 226.738281 C 273.914062 256.304688 249.78125 280.433594 220 280.433594 Z M 293.042969 201.523438 C 292.824219 201.523438 292.609375 201.523438 292.175781 201.523438 L 283.476562 201.523438 C 279.566406 201.304688 276.523438 198.042969 276.738281 194.128906 C 276.957031 190.433594 279.78125 187.609375 283.476562 187.390625 L 292.175781 187.390625 C 296.085938 187.175781 299.347656 190.21875 299.566406 194.128906 C 299.78125 198.042969 296.957031 201.304688 293.042969 201.523438 Z M 293.042969 201.523438 "/>
<path style=" stroke:none;fill-rule:nonzero;fill:rgb(100%,100%,100%);fill-opacity:1;" d="M 220 196.738281 C 203.476562 196.738281 190 210.21875 190 226.738281 C 190 243.261719 203.476562 256.519531 220 256.519531 C 236.523438 256.519531 250 243.042969 250 226.519531 C 250 210 236.523438 196.738281 220 196.738281 Z M 220 196.738281 "/>
</g>
</svg>
