<svg width="34" height="32" viewBox="0 0 34 32" fill="none" xmlns="http://www.w3.org/2000/svg">
<path d="M0.94 11V4H2.01L5.07 9.11H4.51L7.52 4H8.59L8.6 11H7.37L7.36 5.93H7.62L5.06 10.2H4.48L1.88 5.93H2.18V11H0.94ZM11.9108 11V5.1H9.59078V4H15.5308V5.1H13.2108V11H11.9108Z" fill="#96EADA"/>
<path d="M12 25.4026L14.8798 20.8555" stroke="#96EADA" stroke-width="0.5"/>
<path d="M15.79 21.0081V23.2817H17.7605V22.3723H19.1246L17.7605 21.4629V19.9471M18.3667 19.1893V20.4019L21.3982 21.9176L23.9749 19.1893L20.9434 17.522L19.4277 18.2799M21.3982 14.9453L20.034 16.0063L20.9434 17.3704L22.6107 16.1579L22.4592 17.6736L25.0359 18.8862L26.2484 18.583M27.7641 21.9176L26.5516 23.2817L26.2484 24.1911L26.7031 25.2521M22.6107 27.6773L22.0044 26.6163L21.2466 26.3131L18.3667 28.132L18.8215 26.3131L27.1578 21.4629M27.1578 24.949L32.0081 21.4629M17.1542 31.4665L21.2466 27.6773" stroke="#96EADA" stroke-width="0.5"/>
<path d="M23.2178 20.2489V21.9161L23.8241 22.3709L24.4303 21.7646V20.2489L23.8241 19.6426" stroke="#96EADA" stroke-width="0.5"/>
<path d="M13.209 19.6426V23.1287" stroke="#96EADA" stroke-width="0.5"/>
<path d="M12 18.4306V25.4029L13.8188 26.1607L15.4861 26.3123L18.366 28.1312L15.7893 30.2532V31.1626L16.244 31.6173H17.0018L22.1552 29.0406L22.7615 27.828L27.1571 25.0998L28.2181 25.706L33.2199 21.4621V20.8558L32.9168 20.2495L32.1589 20.0979L27.7634 21.9168L27.1571 21.4621V19.0369L26.3992 18.7338V17.2181L23.3678 15.5508L22.4584 16.0055L22.1552 15.5508V12.0647L22.7615 11.61V10.8521L22.1552 10.0942H21.549V9.63953L22.0037 8.88168V7.82069L21.549 7.2144V6.30498L22.1552 5.39555V4.6377V4.33456V3.42513H22.7615V1H21.7005V1.75785H21.0942V3.42513H21.549V4.6377H20.6395L20.3364 4.94084V5.85027L20.6395 6.30498V7.2144L20.3364 7.51754V9.18482L21.0942 9.94268V12.0647H21.7005V12.8225V15.0961L21.0942 14.0351L20.3364 13.5804L19.427 14.6414L19.2754 18.2791L17.7597 19.7948L17.305 19.1885L16.244 19.4916L15.7893 20.8558H15.0314L13.5157 18.2791L12.7579 17.9759L12 18.4306Z" stroke="#96EADA" stroke-width="0.5"/>
</svg>
