<?xml version="1.0" encoding="UTF-8"?>
<svg xmlns="http://www.w3.org/2000/svg" xmlns:xlink="http://www.w3.org/1999/xlink" width="120px" height="113px" viewBox="0 0 120 113" version="1.1">
<g id="surface1">
<path style=" stroke:none;fill-rule:nonzero;fill:rgb(58.823529%,91.764706%,85.490196%);fill-opacity:1;" d="M 3.316406 38.84375 L 3.316406 14.125 L 7.09375 14.125 L 17.894531 32.167969 L 15.917969 32.167969 L 26.542969 14.125 L 30.316406 14.125 L 30.351562 38.84375 L 26.011719 38.84375 L 25.976562 20.941406 L 26.894531 20.941406 L 17.859375 36.019531 L 15.8125 36.019531 L 6.636719 20.941406 L 7.695312 20.941406 L 7.695312 38.84375 Z M 42.039062 38.84375 L 42.039062 18.007812 L 33.851562 18.007812 L 33.851562 14.125 L 54.816406 14.125 L 54.816406 18.007812 L 46.625 18.007812 L 46.625 38.84375 Z M 42.039062 38.84375 "/>
<path style="fill:none;stroke-width:0.5;stroke-linecap:butt;stroke-linejoin:miter;stroke:rgb(58.823529%,91.764706%,85.490196%);stroke-opacity:1;stroke-miterlimit:4;" d="M 11.999609 25.402655 L 14.879427 20.855088 " transform="matrix(3.529412,0,0,3.53125,0,0)"/>
<path style="fill:none;stroke-width:0.5;stroke-linecap:butt;stroke-linejoin:miter;stroke:rgb(58.823529%,91.764706%,85.490196%);stroke-opacity:1;stroke-miterlimit:4;" d="M 15.790299 21.007743 L 15.790299 23.28208 L 17.760352 23.28208 L 17.760352 22.372788 L 19.125 22.372788 L 17.760352 21.462389 L 17.760352 19.946903 M 18.366862 19.189159 L 18.366862 20.401549 L 21.398307 21.918142 L 23.97487 19.189159 L 20.943424 17.522124 L 19.427148 18.279867 M 21.398307 14.945796 L 20.033659 16.006637 L 20.943424 17.370575 L 22.610221 16.158186 L 22.459701 17.673673 L 25.036263 18.886062 L 26.248177 18.582965 M 27.764453 21.918142 L 26.551432 23.28208 L 26.248177 24.191372 L 26.70306 25.252212 M 22.610221 27.676991 L 22.004818 26.61615 L 21.24668 26.313053 L 18.366862 28.131637 L 18.821745 26.313053 L 27.157943 21.462389 M 27.157943 24.949115 L 32.007812 21.462389 M 17.153841 31.466814 L 21.24668 27.676991 " transform="matrix(3.529412,0,0,3.53125,0,0)"/>
<path style="fill:none;stroke-width:0.5;stroke-linecap:butt;stroke-linejoin:miter;stroke:rgb(58.823529%,91.764706%,85.490196%);stroke-opacity:1;stroke-miterlimit:4;" d="M 23.217839 20.248894 L 23.217839 21.915929 L 23.824349 22.370575 L 24.429753 21.764381 L 24.429753 20.248894 L 23.824349 19.642699 " transform="matrix(3.529412,0,0,3.53125,0,0)"/>
<path style="fill:none;stroke-width:0.5;stroke-linecap:butt;stroke-linejoin:miter;stroke:rgb(58.823529%,91.764706%,85.490196%);stroke-opacity:1;stroke-miterlimit:4;" d="M 13.20931 19.642699 L 13.20931 23.128319 " transform="matrix(3.529412,0,0,3.53125,0,0)"/>
<path style="fill:none;stroke-width:0.5;stroke-linecap:butt;stroke-linejoin:miter;stroke:rgb(58.823529%,91.764706%,85.490196%);stroke-opacity:1;stroke-miterlimit:4;" d="M 11.999609 18.43031 L 11.999609 25.402655 L 13.819141 26.160398 L 15.485938 26.311947 L 18.365755 28.131637 L 15.789193 30.253319 L 15.789193 31.162611 L 16.244076 31.617257 L 17.002214 31.617257 L 22.155339 29.040929 L 22.761849 27.82854 L 27.156836 25.099558 L 28.218229 25.705752 L 33.219727 21.462389 L 33.219727 20.856195 L 32.916471 20.25 L 32.15944 20.098451 L 27.763346 21.917035 L 27.156836 21.462389 L 27.156836 19.036504 L 26.398698 18.733407 L 26.398698 17.21792 L 23.367253 15.550885 L 22.458594 16.005531 L 22.155339 15.550885 L 22.155339 12.064159 L 22.761849 11.609513 L 22.761849 10.85177 L 22.155339 10.094027 L 21.548828 10.094027 L 21.548828 9.639381 L 22.003711 8.881637 L 22.003711 7.820796 L 21.548828 7.214602 L 21.548828 6.30531 L 22.155339 5.396018 L 22.155339 3.424779 L 22.761849 3.424779 L 22.761849 1 L 21.700456 1 L 21.700456 1.757743 L 21.093945 1.757743 L 21.093945 3.424779 L 21.548828 3.424779 L 21.548828 4.637168 L 20.639062 4.637168 L 20.336914 4.941372 L 20.336914 5.850664 L 20.639062 6.30531 L 20.639062 7.214602 L 20.336914 7.517699 L 20.336914 9.184735 L 21.093945 9.942478 L 21.093945 12.064159 L 21.700456 12.064159 L 21.700456 15.096239 L 21.093945 14.035398 L 20.336914 13.580752 L 19.427148 14.641593 L 19.275521 18.278761 L 17.759245 19.794248 L 17.305469 19.188053 L 16.244076 19.49115 L 15.789193 20.856195 L 15.031055 20.856195 L 13.515885 18.278761 L 12.757747 17.975664 Z M 11.999609 18.43031 " transform="matrix(3.529412,0,0,3.53125,0,0)"/>
</g>
</svg>
