<?xml version="1.0" encoding="UTF-8"?>
<svg xmlns="http://www.w3.org/2000/svg" xmlns:xlink="http://www.w3.org/1999/xlink" width="210px" height="230px" viewBox="0 0 210 230" version="1.1">
<g id="surface1">
<path style="fill:none;stroke-width:1;stroke-linecap:round;stroke-linejoin:round;stroke:rgb(100%,100%,100%);stroke-opacity:1;stroke-miterlimit:4;" d="M 1.902344 0.970703 L 19.048438 0.970703 C 19.048438 0.970703 19.951172 0.970703 19.951172 1.876953 L 19.951172 20.904688 C 19.951172 20.904688 19.951172 21.810547 19.048438 21.810547 L 1.902344 21.810547 C 1.902344 21.810547 1 21.810547 1 20.904688 L 1 1.876953 C 1 1.876953 1 0.970703 1.902344 0.970703 Z M 1.902344 0.970703 " transform="matrix(10,0,0,10,0,0)"/>
<path style="fill:none;stroke-width:1;stroke-linecap:round;stroke-linejoin:round;stroke:rgb(100%,100%,100%);stroke-opacity:1;stroke-miterlimit:4;" d="M 13.634766 19.091797 L 13.634766 21.810156 " transform="matrix(10,0,0,10,0,0)"/>
<path style="fill:none;stroke-width:1;stroke-linecap:round;stroke-linejoin:round;stroke:rgb(100%,100%,100%);stroke-opacity:1;stroke-miterlimit:4;" d="M 7.316406 16.375 L 7.316406 21.811328 " transform="matrix(10,0,0,10,0,0)"/>
<path style="fill:none;stroke-width:1;stroke-linecap:round;stroke-linejoin:round;stroke:rgb(100%,100%,100%);stroke-opacity:1;stroke-miterlimit:4;" d="M 9.117578 4.595703 C 9.117578 4.835938 9.022266 5.066406 8.853125 5.236328 C 8.683984 5.40625 8.454297 5.501563 8.215234 5.501563 L 6.410156 5.501563 C 6.171094 5.501563 5.941406 5.40625 5.772266 5.236328 C 5.602734 5.066406 5.507812 4.835938 5.507812 4.595703 C 5.507812 4.355078 5.602734 4.124609 5.772266 3.954688 C 5.941406 3.784766 6.171094 3.689453 6.410156 3.689453 L 8.215234 3.689453 C 8.454297 3.689453 8.683984 3.784766 8.853125 3.954688 C 9.022266 4.124609 9.117578 4.355078 9.117578 4.595703 Z M 9.117578 4.595703 " transform="matrix(10,0,0,10,0,0)"/>
<path style="fill:none;stroke-width:1;stroke-linecap:round;stroke-linejoin:round;stroke:rgb(100%,100%,100%);stroke-opacity:1;stroke-miterlimit:4;" d="M 9.117578 6.408203 C 9.117578 6.648438 9.022266 6.878906 8.853125 7.048828 C 8.683984 7.21875 8.454297 7.314063 8.215234 7.314063 L 6.410156 7.314063 C 6.171094 7.314063 5.941406 7.21875 5.772266 7.048828 C 5.602734 6.878906 5.507812 6.648438 5.507812 6.408203 C 5.507812 6.167578 5.602734 5.937109 5.772266 5.767188 C 5.941406 5.597266 6.171094 5.501953 6.410156 5.501953 L 8.215234 5.501953 C 8.454297 5.501953 8.683984 5.597266 8.853125 5.767188 C 9.022266 5.937109 9.117578 6.167578 9.117578 6.408203 Z M 9.117578 6.408203 " transform="matrix(10,0,0,10,0,0)"/>
<path style="fill:none;stroke-width:1;stroke-linecap:round;stroke-linejoin:round;stroke:rgb(100%,100%,100%);stroke-opacity:1;stroke-miterlimit:4;" d="M 15.435938 14.562109 C 15.435938 14.802734 15.340625 15.033203 15.171484 15.203125 C 15.002344 15.373047 14.772656 15.468359 14.533594 15.468359 L 12.728516 15.468359 C 12.489453 15.468359 12.259766 15.373047 12.090625 15.203125 C 11.921094 15.033203 11.826172 14.802734 11.826172 14.562109 C 11.826172 14.321875 11.921094 14.091406 12.090625 13.921484 C 12.259766 13.751563 12.489453 13.65625 12.728516 13.65625 L 14.533594 13.65625 C 14.772656 13.65625 15.002344 13.751563 15.171484 13.921484 C 15.340625 14.091406 15.435938 14.321875 15.435938 14.562109 Z M 15.435938 14.562109 " transform="matrix(10,0,0,10,0,0)"/>
<path style="fill:none;stroke-width:1;stroke-linecap:round;stroke-linejoin:round;stroke:rgb(100%,100%,100%);stroke-opacity:1;stroke-miterlimit:4;" d="M 15.435938 18.185547 C 15.435938 18.425781 15.340625 18.65625 15.171484 18.826172 C 15.002344 18.996094 14.772656 19.091406 14.533594 19.091406 L 12.728516 19.091406 C 12.489453 19.091406 12.259766 18.996094 12.090625 18.826172 C 11.921094 18.65625 11.826172 18.425781 11.826172 18.185547 C 11.826172 17.944922 11.921094 17.714453 12.090625 17.544531 C 12.259766 17.374609 12.489453 17.279297 12.728516 17.279297 L 14.533594 17.279297 C 14.772656 17.279297 15.002344 17.374609 15.171484 17.544531 C 15.340625 17.714453 15.435938 17.944922 15.435938 18.185547 Z M 15.435938 18.185547 " transform="matrix(10,0,0,10,0,0)"/>
<path style="fill:none;stroke-width:1;stroke-linecap:round;stroke-linejoin:round;stroke:rgb(100%,100%,100%);stroke-opacity:1;stroke-miterlimit:4;" d="M 9.117578 15.46875 C 9.117578 15.708984 9.022266 15.939453 8.853125 16.109375 C 8.683984 16.279297 8.454297 16.374609 8.215234 16.374609 L 6.410156 16.374609 C 6.171094 16.374609 5.941406 16.279297 5.772266 16.109375 C 5.602734 15.939453 5.507812 15.708984 5.507812 15.46875 C 5.507812 15.228125 5.602734 14.997656 5.772266 14.827734 C 5.941406 14.657813 6.171094 14.5625 6.410156 14.5625 L 8.215234 14.5625 C 8.454297 14.5625 8.683984 14.657813 8.853125 14.827734 C 9.022266 14.997656 9.117578 15.228125 9.117578 15.46875 Z M 9.117578 15.46875 " transform="matrix(10,0,0,10,0,0)"/>
<path style="fill:none;stroke-width:1;stroke-linecap:round;stroke-linejoin:round;stroke:rgb(100%,100%,100%);stroke-opacity:1;stroke-miterlimit:4;" d="M 15.435938 4.595703 C 15.435938 4.835938 15.340625 5.066406 15.171484 5.236328 C 15.002344 5.40625 14.772656 5.501563 14.533594 5.501563 L 12.728516 5.501563 C 12.489453 5.501563 12.259766 5.40625 12.090625 5.236328 C 11.921094 5.066406 11.826172 4.835938 11.826172 4.595703 C 11.826172 4.355078 11.921094 4.124609 12.090625 3.954688 C 12.259766 3.784766 12.489453 3.689453 12.728516 3.689453 L 14.533594 3.689453 C 14.772656 3.689453 15.002344 3.784766 15.171484 3.954688 C 15.340625 4.124609 15.435938 4.355078 15.435938 4.595703 Z M 15.435938 4.595703 " transform="matrix(10,0,0,10,0,0)"/>
<path style="fill:none;stroke-width:1;stroke-linecap:round;stroke-linejoin:round;stroke:rgb(100%,100%,100%);stroke-opacity:1;stroke-miterlimit:4;" d="M 7.316406 7.3125 L 7.316406 14.560938 " transform="matrix(10,0,0,10,0,0)"/>
<path style="fill:none;stroke-width:1;stroke-linecap:round;stroke-linejoin:round;stroke:rgb(100%,100%,100%);stroke-opacity:1;stroke-miterlimit:4;" d="M 7.316406 3.689063 L 7.316406 0.970703 " transform="matrix(10,0,0,10,0,0)"/>
<path style="fill:none;stroke-width:1;stroke-linecap:round;stroke-linejoin:round;stroke:rgb(100%,100%,100%);stroke-opacity:1;stroke-miterlimit:4;" d="M 13.634766 5.501953 L 13.630859 13.203516 " transform="matrix(10,0,0,10,0,0)"/>
<path style="fill:none;stroke-width:1;stroke-linecap:round;stroke-linejoin:round;stroke:rgb(100%,100%,100%);stroke-opacity:1;stroke-miterlimit:4;" d="M 13.634766 0.970703 L 13.634766 3.689063 " transform="matrix(10,0,0,10,0,0)"/>
</g>
</svg>
