<?xml version="1.0" encoding="UTF-8"?>
<svg xmlns="http://www.w3.org/2000/svg" xmlns:xlink="http://www.w3.org/1999/xlink" width="1010px" height="1090px" viewBox="0 0 1010 1090" version="1.1">
<g id="surface1">
<path style=" stroke:none;fill-rule:nonzero;fill:rgb(91.764706%,42.352941%,21.176471%);fill-opacity:1;" d="M 505.039062 545.019531 C 558.253906 545.019531 610.273438 529.238281 654.523438 499.675781 C 698.769531 470.109375 733.257812 428.089844 753.621094 378.921875 C 773.984375 329.757812 779.3125 275.660156 768.933594 223.464844 C 758.550781 171.273438 732.925781 123.328125 695.296875 85.703125 C 657.664062 48.070312 609.722656 22.445312 557.53125 12.066406 C 505.339844 1.683594 451.238281 7.011719 402.074219 27.375 C 352.910156 47.742188 310.886719 82.226562 281.320312 126.472656 C 251.757812 170.722656 235.976562 222.742188 235.976562 275.957031 C 235.976562 347.316406 264.324219 415.753906 314.78125 466.214844 C 365.242188 516.671875 433.679688 545.019531 505.039062 545.019531 Z M 505.039062 621.894531 C 338.269531 621.894531 5.351562 724.90625 5.351562 929.394531 L 5.351562 1083.140625 L 1004.730469 1083.140625 L 1004.730469 929.394531 C 1004.730469 724.90625 671.808594 621.894531 505.039062 621.894531 Z M 505.039062 621.894531 "/>
</g>
</svg>
